<svg width="34" height="26" viewBox="0 0 34 26" fill="none" xmlns="http://www.w3.org/2000/svg">
<rect x="0.5" y="0.5" width="33" height="25" rx="1.5" fill="white" stroke="white"/>
<path d="M26.4531 5.78125H7.54688C7.50173 5.78124 7.45702 5.79012 7.41531 5.80739C7.3736 5.82466 7.3357 5.84998 7.30378 5.88191C7.27186 5.91383 7.24654 5.95173 7.22927 5.99344C7.212 6.03515 7.20311 6.07985 7.20313 6.125V16.4375C7.20311 16.4826 7.212 16.5274 7.22927 16.5691C7.24654 16.6108 7.27186 16.6487 7.30378 16.6806C7.3357 16.7125 7.3736 16.7378 7.41531 16.7551C7.45702 16.7724 7.50173 16.7813 7.54688 16.7812H26.4531C26.4983 16.7813 26.543 16.7724 26.5847 16.7551C26.6264 16.7378 26.6643 16.7125 26.6962 16.6806C26.7281 16.6487 26.7535 16.6108 26.7707 16.5691C26.788 16.5274 26.7969 16.4826 26.7969 16.4375V6.125C26.7969 6.07985 26.788 6.03515 26.7707 5.99344C26.7535 5.95173 26.7281 5.91383 26.6962 5.88191C26.6643 5.84998 26.6264 5.82466 26.5847 5.80739C26.543 5.79012 26.4983 5.78124 26.4531 5.78125ZM26.1094 16.0938H7.89062V6.46875H26.1094V16.0938Z" fill="#1E1E1E"/>
<path d="M9.26562 13.6875C9.53904 13.6878 9.80117 13.7965 9.9945 13.9899C10.1878 14.1832 10.2966 14.4453 10.2969 14.7188C10.2969 14.7639 10.3057 14.8086 10.323 14.8503C10.3403 14.892 10.3656 14.9299 10.3975 14.9618C10.4295 14.9938 10.4674 15.0191 10.5091 15.0364C10.5508 15.0536 10.5955 15.0625 10.6406 15.0625H13.9062C13.9974 15.0625 14.0849 15.0263 14.1493 14.9618C14.2138 14.8974 14.25 14.8099 14.25 14.7188C14.25 14.6276 14.2138 14.5401 14.1493 14.4757C14.0849 14.4112 13.9974 14.375 13.9062 14.375H10.9498C10.8818 14.045 10.7186 13.7422 10.4804 13.504C10.2421 13.2658 9.93934 13.1026 9.60938 13.0346V9.52792C9.93934 9.45992 10.2421 9.29672 10.4804 9.0585C10.7186 8.82027 10.8818 8.51747 10.9498 8.1875H13.9062C13.9974 8.1875 14.0849 8.15128 14.1493 8.08682C14.2138 8.02235 14.25 7.93492 14.25 7.84375C14.25 7.75258 14.2138 7.66515 14.1493 7.60068C14.0849 7.53622 13.9974 7.5 13.9062 7.5H10.6406C10.5955 7.49999 10.5508 7.50887 10.5091 7.52614C10.4674 7.54341 10.4295 7.56873 10.3975 7.60066C10.3656 7.63258 10.3403 7.67048 10.323 7.71219C10.3057 7.7539 10.2969 7.7986 10.2969 7.84375C10.2966 8.11716 10.1878 8.37929 9.9945 8.57262C9.80117 8.76596 9.53904 8.8747 9.26562 8.875C9.22048 8.87499 9.17577 8.88387 9.13406 8.90114C9.09235 8.91841 9.05445 8.94373 9.02253 8.97566C8.99061 9.00758 8.96529 9.04548 8.94802 9.08719C8.93075 9.1289 8.92186 9.1736 8.92188 9.21875V13.3438C8.92186 13.3889 8.93075 13.4336 8.94802 13.4753C8.96529 13.517 8.99061 13.5549 9.02253 13.5868C9.05445 13.6188 9.09235 13.6441 9.13406 13.6614C9.17577 13.6786 9.22048 13.6875 9.26562 13.6875Z" fill="#1E1E1E"/>
<path d="M20.0938 8.1875H23.05C23.118 8.51747 23.2812 8.82027 23.5195 9.0585C23.7577 9.29672 24.0605 9.45992 24.3905 9.52792V13.0346C24.0605 13.1026 23.7577 13.2658 23.5195 13.504C23.2812 13.7422 23.118 14.045 23.05 14.375H20.0938C20.0026 14.375 19.9151 14.4112 19.8507 14.4757C19.7862 14.5401 19.75 14.6276 19.75 14.7188C19.75 14.8099 19.7862 14.8974 19.8507 14.9618C19.9151 15.0263 20.0026 15.0625 20.0938 15.0625H23.3592C23.4044 15.0625 23.4491 15.0536 23.4908 15.0364C23.5325 15.0191 23.5704 14.9938 23.6023 14.9618C23.6342 14.9299 23.6595 14.892 23.6768 14.8503C23.6941 14.8086 23.703 14.7639 23.703 14.7188C23.7033 14.4453 23.812 14.1832 24.0053 13.9899C24.1987 13.7965 24.4608 13.6878 24.7342 13.6875C24.7794 13.6875 24.8241 13.6786 24.8658 13.6614C24.9075 13.6441 24.9454 13.6188 24.9773 13.5868C25.0092 13.5549 25.0345 13.517 25.0518 13.4753C25.0691 13.4336 25.078 13.3889 25.078 13.3438V9.21875C25.078 9.1736 25.0691 9.1289 25.0518 9.08719C25.0345 9.04548 25.0092 9.00758 24.9773 8.97566C24.9454 8.94373 24.9075 8.91841 24.8658 8.90114C24.8241 8.88387 24.7794 8.87499 24.7342 8.875C24.4608 8.8747 24.1987 8.76596 24.0053 8.57262C23.812 8.37929 23.7033 8.11716 23.703 7.84375C23.703 7.7986 23.6941 7.7539 23.6768 7.71219C23.6595 7.67048 23.6342 7.63258 23.6023 7.60066C23.5704 7.56873 23.5325 7.54341 23.4908 7.52614C23.4491 7.50887 23.4044 7.49999 23.3592 7.5H20.0938C20.0026 7.5 19.9151 7.53622 19.8507 7.60068C19.7862 7.66515 19.75 7.75258 19.75 7.84375C19.75 7.93492 19.7862 8.02235 19.8507 8.08682C19.9151 8.15128 20.0026 8.1875 20.0938 8.1875Z" fill="#1E1E1E"/>
<path d="M17 14.2031C17.5779 14.2031 18.1428 14.0318 18.6233 13.7107C19.1038 13.3896 19.4783 12.9333 19.6995 12.3994C19.9206 11.8655 19.9785 11.278 19.8657 10.7112C19.753 10.1444 19.4747 9.62381 19.0661 9.21517C18.6574 8.80654 18.1368 8.52826 17.57 8.41552C17.0032 8.30278 16.4157 8.36064 15.8818 8.58179C15.3479 8.80294 14.8916 9.17744 14.5705 9.65794C14.2495 10.1384 14.0781 10.7034 14.0781 11.2813C14.079 12.0559 14.3871 12.7986 14.9349 13.3463C15.4827 13.8941 16.2253 14.2022 17 14.2031ZM17 9.04688C17.4419 9.04688 17.8739 9.17792 18.2414 9.42344C18.6088 9.66895 18.8952 10.0179 19.0643 10.4262C19.2334 10.8345 19.2777 11.2837 19.1914 11.7172C19.1052 12.1506 18.8924 12.5487 18.5799 12.8612C18.2675 13.1737 17.8693 13.3865 17.4359 13.4727C17.0025 13.5589 16.5532 13.5147 16.1449 13.3455C15.7367 13.1764 15.3877 12.89 15.1422 12.5226C14.8967 12.1552 14.7656 11.7232 14.7656 11.2813C14.7663 10.6889 15.0019 10.1209 15.4208 9.70206C15.8397 9.28318 16.4076 9.04756 17 9.04688Z" fill="#1E1E1E"/>
<path d="M26.4531 17.8125H7.54688C7.45571 17.8125 7.36827 17.8487 7.30381 17.9132C7.23934 17.9776 7.20312 18.0651 7.20312 18.1562C7.20312 18.2474 7.23934 18.3349 7.30381 18.3993C7.36827 18.4638 7.45571 18.5 7.54688 18.5H26.4531C26.5443 18.5 26.6317 18.4638 26.6962 18.3993C26.7607 18.3349 26.7969 18.2474 26.7969 18.1562C26.7969 18.0651 26.7607 17.9776 26.6962 17.9132C26.6317 17.8487 26.5443 17.8125 26.4531 17.8125Z" fill="#1E1E1E"/>
<path d="M26.4531 19.5312H7.54688C7.45571 19.5312 7.36827 19.5675 7.30381 19.6319C7.23934 19.6964 7.20312 19.7838 7.20312 19.875C7.20312 19.9662 7.23934 20.0536 7.30381 20.1181C7.36827 20.1825 7.45571 20.2188 7.54688 20.2188H26.4531C26.5443 20.2188 26.6317 20.1825 26.6962 20.1181C26.7607 20.0536 26.7969 19.9662 26.7969 19.875C26.7969 19.7838 26.7607 19.6964 26.6962 19.6319C26.6317 19.5675 26.5443 19.5312 26.4531 19.5312Z" fill="#1E1E1E"/>
</svg>
