<svg width="16" height="16" viewBox="0 0 16 16" fill="none" xmlns="http://www.w3.org/2000/svg">
<g clip-path="url(#clip0_817_1062)">
<path d="M13.1467 6.26037C13.1467 10.6427 7.51233 14.3989 7.51233 14.3989C7.51233 14.3989 1.87793 10.6427 1.87793 6.26037C1.87793 4.76604 2.47155 3.33291 3.52821 2.27625C4.58486 1.2196 6.01799 0.625977 7.51233 0.625977C9.00666 0.625977 10.4398 1.2196 11.4964 2.27625C12.5531 3.33291 13.1467 4.76604 13.1467 6.26037Z" stroke="white" stroke-width="1.25209" stroke-linecap="round" stroke-linejoin="round"/>
<path d="M7.51241 8.13859C8.54967 8.13859 9.39054 7.29772 9.39054 6.26046C9.39054 5.22319 8.54967 4.38232 7.51241 4.38232C6.47515 4.38232 5.63428 5.22319 5.63428 6.26046C5.63428 7.29772 6.47515 8.13859 7.51241 8.13859Z" stroke="white" stroke-width="1.25209" stroke-linecap="round" stroke-linejoin="round"/>
</g>
<defs>
<clipPath id="clip0_817_1062">
<rect width="15.0251" height="15.0251" fill="white"/>
</clipPath>
</defs>
</svg>
