<svg width="34" height="27" viewBox="0 0 34 27" fill="none" xmlns="http://www.w3.org/2000/svg">
<rect x="0.5" y="0.5" width="33" height="25" rx="1.5" fill="white" stroke="white"/>
<path d="M10.4761 14.4759C10.4761 14.6664 10.5713 14.7616 10.7618 14.7616C11.0951 14.7616 11.2856 14.4759 11.3332 14.0474C11.238 14.0474 11.238 14.0474 11.1428 14.0474C10.7142 14.0474 10.4761 14.1902 10.4761 14.4759Z" fill="#1E1E1E"/>
<path d="M22.6665 14.4759C22.6665 14.6664 22.7617 14.7616 22.9522 14.7616C23.2855 14.7616 23.476 14.4759 23.5236 14.0474C23.4284 14.0474 23.4284 14.0474 23.3332 14.0474C22.857 14.0474 22.6665 14.1902 22.6665 14.4759Z" fill="#1E1E1E"/>
<path d="M16.857 13.0474C16.619 13.0474 16.4285 13.2378 16.3809 13.5712H17.238C17.238 13.4759 17.3332 13.0474 16.857 13.0474Z" fill="#1E1E1E"/>
<path d="M27.1903 13.1426C26.857 13.1426 26.5713 13.5711 26.5713 14.1426C26.5713 14.5235 26.7141 14.714 26.9522 14.714C27.3332 14.714 27.5713 14.2854 27.5713 13.714C27.6189 13.3331 27.476 13.1426 27.1903 13.1426Z" fill="#1E1E1E"/>
<path d="M22.2379 6.38086C20.4284 6.38086 18.7617 7.04752 17.476 8.19038C16.2379 7.04752 14.5713 6.38086 12.7618 6.38086C8.85699 6.38086 5.6665 9.57135 5.6665 13.4761C5.6665 17.3809 8.85699 20.5713 12.7618 20.5713C14.5713 20.5713 16.2379 19.9047 17.476 18.7618C18.7141 19.9047 20.3808 20.5713 22.2379 20.5713C26.1427 20.5713 29.3332 17.3809 29.3332 13.4761C29.3332 9.57135 26.1427 6.38086 22.2379 6.38086ZM8.6665 15.3809L9.09508 12.6189L8.09506 15.3809H7.57127L7.52366 12.6189L7.04747 15.3809H6.33318L6.95222 11.7618H8.04746L8.09506 13.9999L8.85699 11.7618H10.0475L9.42842 15.3809H8.6665ZM11.2379 15.3809V15.0951C11.0475 15.3332 10.7617 15.4285 10.4284 15.4285C9.99984 15.4285 9.71412 15.0951 9.71412 14.6189C9.71412 13.9047 10.1903 13.4761 11.0475 13.4761C11.1427 13.4761 11.2379 13.4761 11.3808 13.4761C11.4284 13.3809 11.4284 13.3332 11.4284 13.2856C11.4284 13.0951 11.2855 12.9999 10.9522 12.9999C10.5713 12.9999 10.2856 13.0952 10.1427 13.1428C10.1427 13.0952 10.2379 12.4761 10.2379 12.4761C10.6189 12.3809 10.857 12.3332 11.1427 12.3332C11.8094 12.3332 12.1427 12.6189 12.1427 13.1904C12.1427 13.3332 12.1427 13.5237 12.0951 13.7618C12.0475 14.1904 11.9046 15.0951 11.857 15.3332C11.7617 15.3809 11.2379 15.3809 11.2379 15.3809ZM13.5236 13.619C13.9046 13.8094 14.0474 14.0475 14.0474 14.4285C14.0474 15.0952 13.6665 15.4285 12.857 15.4285C12.3808 15.4285 12.2379 15.3809 12.0475 15.3332C12.0475 15.2856 12.1427 14.6666 12.1427 14.6666C12.3808 14.7618 12.6189 14.7618 12.857 14.7618C13.1427 14.7618 13.2856 14.6666 13.2856 14.4761C13.2856 14.3332 13.2379 14.2856 12.9046 14.1428C12.476 13.9523 12.3332 13.7142 12.3332 13.3332C12.3332 12.8094 12.6189 12.3332 13.476 12.3332C13.6665 12.3332 13.9522 12.3808 14.1427 12.3808L14.0474 13.0475C13.857 12.9999 13.6665 12.9999 13.476 12.9999C13.2379 12.9999 13.0951 13.0952 13.0951 13.238C13.1427 13.4285 13.1903 13.4761 13.5236 13.619ZM15.1903 14.7142C15.2856 14.7142 15.3332 14.7142 15.3808 14.6666L15.2856 15.3332C15.0951 15.3809 14.9046 15.4285 14.7141 15.4285C14.3332 15.4285 14.0951 15.1904 14.0951 14.7618C14.0951 14.6189 14.1427 14.2856 14.1903 13.9999C14.2379 13.7142 14.5236 11.9999 14.5236 11.9999H15.2856L15.1903 12.4285H15.5713L15.476 13.1428H15.0951C14.9998 13.7142 14.857 14.3809 14.857 14.4761C14.9522 14.619 15.0475 14.7142 15.1903 14.7142ZM16.9998 14.7618C17.2855 14.7618 17.5236 14.7142 17.8094 14.5713L17.6665 15.2856C17.3808 15.3809 17.1427 15.3809 16.857 15.3809C15.9998 15.3809 15.5713 14.9523 15.5713 14.0952C15.5713 13.0952 16.1427 12.3332 16.9046 12.3332C17.5236 12.3332 17.9522 12.7618 17.9522 13.3809C17.9522 13.619 17.9046 13.8094 17.857 14.0952H16.3332C16.2856 14.5713 16.5713 14.7618 16.9998 14.7618ZM18.7141 15.3809H17.9522L17.9998 15.1904C18.1427 14.2856 18.2856 13.3809 18.3808 12.4761H19.0951C19.0951 12.6189 19.0474 12.7618 19.0474 12.9047C19.2855 12.5713 19.476 12.3809 19.8094 12.4285C19.7141 12.5713 19.5713 12.9047 19.5236 13.2856C19.0474 13.238 18.9998 13.5713 18.7141 15.3809ZM21.6665 15.3332C21.3808 15.4285 21.1903 15.4285 20.9998 15.4285C20.1903 15.4285 19.6665 14.8094 19.6665 13.8571C19.6665 12.5713 20.3808 11.6666 21.4284 11.6666C21.7617 11.6666 22.1427 11.8094 22.2856 11.857L22.1427 12.6189C21.857 12.4761 21.6665 12.4285 21.476 12.4285C20.9046 12.4285 20.476 12.9999 20.476 13.7618C20.476 14.2856 20.7617 14.6189 21.1903 14.6189C21.3808 14.6189 21.5713 14.5713 21.857 14.4285L21.6665 15.3332ZM24.0474 15.3809C23.9522 15.3809 23.4284 15.3809 23.4284 15.3809V15.0951C23.2379 15.3332 22.9522 15.4285 22.6189 15.4285C22.1903 15.4285 21.9046 15.0951 21.9046 14.6189C21.9046 13.9047 22.3808 13.4761 23.2379 13.4761C23.3332 13.4761 23.4284 13.4761 23.5713 13.4761C23.6189 13.3809 23.6189 13.3332 23.6189 13.2856C23.6189 13.0951 23.476 12.9999 23.1427 12.9999C22.7617 12.9999 22.476 13.0952 22.3332 13.1428C22.3332 13.0952 22.4284 12.4761 22.4284 12.4761C22.8094 12.3809 23.0474 12.3332 23.3332 12.3332C23.9998 12.3332 24.3332 12.6189 24.3332 13.1904C24.3332 13.3332 24.3332 13.5237 24.2855 13.7618C24.1903 14.238 24.0474 15.1428 24.0474 15.3809ZM25.0951 15.3809H24.3332L24.3808 15.1904C24.5236 14.2856 24.6665 13.3809 24.7617 12.4761H25.476C25.476 12.6189 25.4284 12.7618 25.4284 12.9047C25.6665 12.5713 25.857 12.3809 26.1903 12.4285C26.0951 12.5713 25.9522 12.9047 25.9046 13.2856C25.4284 13.238 25.3332 13.5713 25.0951 15.3809ZM27.3808 15.3809L27.4284 15.0951C27.2379 15.3332 26.9998 15.4285 26.7141 15.4285C26.1427 15.4285 25.7617 14.9523 25.7617 14.1904C25.7617 13.238 26.3332 12.3808 26.9998 12.3808C27.2855 12.3808 27.5236 12.5237 27.7141 12.7618L27.9046 11.7142H28.6665L28.0951 15.3332H27.3808V15.3809Z" fill="#1E1E1E"/>
</svg>
