<svg width="16" height="16" viewBox="0 0 16 16" fill="none" xmlns="http://www.w3.org/2000/svg">
<path d="M14.2164 10.9338V12.8724C14.2172 13.0524 14.1803 13.2305 14.1082 13.3954C14.0361 13.5603 13.9304 13.7084 13.7978 13.83C13.6651 13.9517 13.5086 14.0443 13.3381 14.102C13.1676 14.1596 12.987 14.181 12.8077 14.1648C10.8193 13.9488 8.9092 13.2693 7.23102 12.181C5.66969 11.1889 4.34596 9.86514 3.35382 8.30381C2.26173 6.61801 1.5821 4.69866 1.36999 2.70126C1.35384 2.52256 1.37508 2.34246 1.43235 2.17242C1.48962 2.00239 1.58167 1.84614 1.70263 1.71362C1.8236 1.58111 1.97083 1.47523 2.13496 1.40273C2.29908 1.33024 2.4765 1.29271 2.65593 1.29254H4.59453C4.90813 1.28946 5.21216 1.40051 5.44994 1.605C5.68772 1.80949 5.84303 2.09347 5.88693 2.40401C5.96875 3.0244 6.12049 3.63355 6.33927 4.21983C6.42621 4.45112 6.44502 4.70248 6.39349 4.94414C6.34195 5.1858 6.22221 5.40761 6.04848 5.58331L5.2278 6.40398C6.1477 8.02177 7.48721 9.36128 9.105 10.2812L9.92567 9.46051C10.1014 9.28677 10.3232 9.16703 10.5648 9.1155C10.8065 9.06396 11.0579 9.08277 11.2892 9.16972C11.8754 9.38849 12.4846 9.54023 13.105 9.62206C13.4189 9.66634 13.7056 9.82445 13.9105 10.0663C14.1154 10.3082 14.2243 10.6169 14.2164 10.9338Z" stroke="white" stroke-width="1.2924" stroke-linecap="round" stroke-linejoin="round"/>
</svg>
