<svg width="34" height="26" viewBox="0 0 34 26" fill="none" xmlns="http://www.w3.org/2000/svg">
<rect x="0.5" y="0.5" width="33" height="25" rx="1.5" fill="white" stroke="white"/>
<path d="M14.6704 9.78857L13.2153 16.4905H14.979L16.3899 9.78857H14.6704Z" fill="#1E1E1E"/>
<path d="M12.1129 9.78871L10.3051 14.3302L9.55555 10.4501C9.46736 10.0092 9.11464 9.78871 8.7619 9.78871H5.80775L5.76367 9.96509C6.38096 10.0974 7.04234 10.3178 7.48326 10.5383C7.74781 10.6705 7.79189 10.8028 7.88007 11.1115L9.24693 16.4466H11.0988L13.9206 9.74463H12.1129V9.78871Z" fill="#1E1E1E"/>
<path d="M25.8252 9.78857H24.3261C23.9733 9.78857 23.7088 9.96496 23.5765 10.2736L20.9751 16.4905H22.7828L23.1356 15.4764H25.3402L25.5606 16.4905H27.1479L25.8252 9.78857ZM23.7088 14.1096L24.6347 11.5964L25.1638 14.1096H23.7088Z" fill="#1E1E1E"/>
<path d="M18.6827 11.6404C18.6827 11.4199 18.9031 11.1554 19.4322 11.0672C19.6968 11.0231 20.3582 11.0231 21.1518 11.3758L21.4604 9.9649C21.0636 9.83262 20.4904 9.65625 19.8291 9.65625C18.1095 9.65625 16.919 10.5822 16.919 11.8608C16.919 12.8309 17.8008 13.3599 18.4181 13.6686C19.0795 13.9772 19.3 14.1977 19.3 14.5063C19.3 14.9473 18.7708 15.1677 18.2417 15.1677C17.3599 15.1677 16.8749 14.9473 16.4781 14.7268L16.1694 16.1818C16.5663 16.3582 17.3158 16.5345 18.1095 16.5345C19.9172 16.5345 21.1077 15.6527 21.1077 14.2418C21.1077 12.5663 18.6386 12.434 18.6827 11.6404Z" fill="#1E1E1E"/>
</svg>
